# xmcd
#
# Track frame offsets:
#	150
#	10802
#	23112
#	34805
#	45267
#	55507
#	70162
#	83779
#	95482
#	106988
#	119216
#	131340
#	143167
#	158156
#
# Disc length: 2265 seconds
#
# Revision: 0
# Processed by: cddbd v1.5.1PL0 Copyright (c) Steve Scherf et al.
# Submitted via: dBpowerAMP V4.0
#
DISCID=af08d70e
DTITLE=Banda El recodo - Mis mejores mejores momentos
DYEAR=2001
DGENRE=Polka
TTITLE0=Ya me voy - Juan gabriel
TTITLE1=Tu y las nubes - Jose alfredo jimenez
TTITLE2=Que te falta mujer - Miguel aceves mejia
TTITLE3=El sauce y la palma - Estela nuñez
TTITLE4=El disgusto - Yolanda del rio
TTITLE5=la camioneta gris - Banda sinaloen el recodo
TTITLE6=la ley del monte - Jose angel espinoza
TTITLE7=Me gusta mucho - Juan gabriel
TTITLE8=Cuatro caminos - Jose alfredo jimenez
TTITLE9=Rosa de castilla - Miguel aceves mejia
TTITLE10=El sinaloense - Estela nuñez
TTITLE11=El golpe traidor - Yolanda del rio
TTITLE12=El cochi loco - Banda sinaloense el recodo
TTITLE13=Seis años Jose angel espinoza
EXTD=
EXTT0=
EXTT1=
EXTT2=
EXTT3=
EXTT4=
EXTT5=
EXTT6=
EXTT7=
EXTT8=
EXTT9=
EXTT10=
EXTT11=
EXTT12=
EXTT13=
PLAYORDER=
